<?xml version="1.0" encoding="UTF-8"?>
<svg version="1.1" xmlns="http://www.w3.org/2000/svg" width="512" height="512">
<path d="M0 0 C0.90618576 -0.0033284 1.81237152 -0.0066568 2.74601746 -0.01008606 C4.6598561 -0.01513848 6.57370352 -0.01749491 8.48754883 -0.01733398 C11.39744798 -0.01951586 14.30696495 -0.03767685 17.21679688 -0.05664062 C19.08202996 -0.05957592 20.94726484 -0.0615598 22.8125 -0.0625 C23.67422318 -0.06968552 24.53594635 -0.07687103 25.42378235 -0.08427429 C32.21453161 -0.05892314 38.85453335 0.62895561 44.73046875 4.35546875 C45.33117187 4.72027344 45.931875 5.08507812 46.55078125 5.4609375 C53.01067113 10.82780418 56.59014833 17.39456709 60.10546875 24.91796875 C60.58250244 25.93004395 61.05953613 26.94211914 61.55102539 27.98486328 C81.43737046 71.17186713 77.35900594 112.3665094 67.54296875 157.625 C67.3929541 158.32325394 67.24293945 159.02150787 67.08837891 159.74092102 C66.18626964 163.84159623 65.15333243 167.89115745 64.04125977 171.94023132 C63.77209244 172.92186091 63.50292511 173.90349051 63.2256012 174.91486645 C63.02095749 175.65839021 62.81631378 176.40191397 62.60546875 177.16796875 C63.61245788 177.16428158 64.619447 177.16059441 65.65695095 177.1567955 C90.16992878 177.06795989 114.68288571 177.00224797 139.19599056 176.96072006 C151.05039634 176.9401032 162.90469572 176.91199919 174.7590332 176.86621094 C185.09241624 176.82631654 195.42572221 176.80052957 205.75918013 176.79161477 C211.22965096 176.78640448 216.69990133 176.77417634 222.17030144 176.74504852 C227.32242125 176.71783846 232.4742304 176.70953513 237.62641525 176.71553802 C239.5141818 176.7144403 241.40195905 176.70651986 243.28966331 176.69114685 C261.6032978 176.54935809 261.6032978 176.54935809 268.60546875 181.16796875 C269.42660156 181.69777344 270.24773437 182.22757813 271.09375 182.7734375 C271.99673828 183.55654297 271.99673828 183.55654297 272.91796875 184.35546875 C273.53285156 184.86464844 274.14773438 185.37382812 274.78125 185.8984375 C281.20669379 193.89240505 281.17823404 202.33953738 281.10717773 212.2277832 C281.11096681 213.73671979 281.11647168 215.24565289 281.12355042 216.75457764 C281.13744934 220.83131618 281.12637308 224.90762999 281.1098392 228.98434472 C281.09592233 233.26684362 281.1024566 237.5493195 281.10597229 241.83183289 C281.10867007 249.02492051 281.09523915 256.21784087 281.07202148 263.41088867 C281.04544484 271.70142512 281.04365663 279.99168151 281.05540985 288.28224593 C281.06623012 296.28542586 281.05996539 304.28850547 281.04585457 312.29167747 C281.04012843 315.68411853 281.04015076 319.07648535 281.04491997 322.46892738 C281.04973049 326.47376922 281.03942151 330.47830879 281.01796532 334.48309326 C281.01245115 335.94386463 281.01188203 337.40466537 281.01691818 338.86543846 C281.05292173 350.81708608 279.67412224 361.54391106 273.73046875 372.04296875 C273.34463623 372.74800537 272.95880371 373.45304199 272.5612793 374.17944336 C268.23262347 382.00656707 263.64100093 389.6869543 259.05859375 397.3671875 C255.55678923 403.23698298 252.10702884 409.13624486 248.66796875 415.04296875 C248.08700439 416.04013916 247.50604004 417.03730957 246.9074707 418.06469727 C245.72864467 420.08826446 244.55001541 422.1119463 243.37158203 424.13574219 C239.87289867 430.14260524 236.36941654 436.14667323 232.86450195 442.14990234 C229.89031967 447.24528759 226.92227555 452.34409049 223.96484375 457.44921875 C218.73701103 466.46517296 213.50518612 475.47884312 208.04296875 484.35546875 C207.66172852 484.98453125 207.28048828 485.61359375 206.88769531 486.26171875 C202.26835062 493.6690946 196.94530951 498.4878042 188.60546875 501.16796875 C182.08025153 502.12143652 175.41092677 501.85936688 168.83447266 501.82739258 C166.82871508 501.83585674 164.82296573 501.84650584 162.81723022 501.85916138 C157.37637319 501.88729144 151.93591104 501.88482917 146.49500322 501.87686753 C140.74306137 501.87372015 134.9912403 501.89886885 129.23934937 501.92082214 C118.29432588 501.95831212 107.34942624 501.97040871 96.40434492 501.97344655 C84.15662623 501.97806684 71.90904038 502.01094255 59.66137815 502.0463444 C38.30353513 502.10718407 16.94562857 502.15739487 -4.41231346 502.15556049 C-6.4870135 502.15553126 -8.56171354 502.15556793 -10.63641357 502.15567017 C-11.66438746 502.15571971 -12.69236134 502.15576926 -13.75148594 502.15582031 C-20.5229129 502.15898385 -27.29398897 502.18420042 -34.06531131 502.22144943 C-38.8218644 502.24657969 -43.57843167 502.26397662 -48.33502126 502.28058183 C-50.59600494 502.29048593 -52.85697633 502.30396391 -55.11791492 502.32134211 C-74.65935879 502.46958909 -93.69945055 502.54062701 -109.39453125 489.16796875 C-110.28140625 488.54921875 -111.16828125 487.93046875 -112.08203125 487.29296875 C-116.78043594 482.9755158 -120.12296864 477.53191434 -120.52448308 471.07967412 C-120.52681373 470.32717307 -120.52914437 469.57467202 -120.53154564 468.7993679 C-120.53662018 467.92672181 -120.54169472 467.05407571 -120.54692304 466.15498579 C-120.5474208 465.20072127 -120.54791856 464.24645676 -120.5484314 463.26327515 C-120.55281365 462.24602502 -120.5571959 461.22877488 -120.56171095 460.18069899 C-120.57509822 456.76157741 -120.58127768 453.3424816 -120.58740234 449.92333984 C-120.59530336 447.47595096 -120.60357231 445.02856325 -120.61218262 442.58117676 C-120.63613865 435.22938136 -120.65133025 427.87759022 -120.66424268 420.52576917 C-120.66795632 418.44836203 -120.67192941 416.37095555 -120.67599535 414.29354906 C-120.70123343 401.38560877 -120.72328059 388.47766738 -120.7357235 375.56970787 C-120.73865306 372.58113984 -120.74161474 369.59257185 -120.74462891 366.60400391 C-120.74537496 365.86123532 -120.74612101 365.11846674 -120.74688967 364.35319002 C-120.75953816 352.32592185 -120.79275584 340.29880169 -120.83443074 328.27160268 C-120.8768921 315.91587119 -120.90042336 303.56021539 -120.90564406 291.20441115 C-120.90905341 284.27016934 -120.92075204 277.33615884 -120.9537468 270.40198898 C-120.98474584 263.87665617 -120.99014062 257.3516527 -120.97836304 250.82623291 C-120.97814227 248.43415449 -120.98645013 246.04205741 -121.00401688 243.65004349 C-121.02673605 240.37773407 -121.01839934 237.10688213 -121.00253296 233.83456421 C-121.01641505 232.89368403 -121.03029713 231.95280385 -121.04459989 230.98341215 C-120.93661877 221.91044913 -117.41533181 214.59922615 -110.95703125 208.23046875 C-84.5197239 180.23573534 -63.44175576 142.66519281 -46.20458984 108.56079102 C-44.88484714 106.08702997 -43.54700894 103.84870143 -42.01025391 101.52319336 C-33.30188861 87.56991016 -34.23440524 72.64009578 -34.487854 56.78863525 C-34.57165748 51.01297727 -34.5771981 45.23678198 -34.58089828 39.46061897 C-34.58960716 37.46819072 -34.6224852 35.47591417 -34.65603638 33.48374939 C-34.73851129 22.58920797 -33.24867307 15.13732559 -25.6484375 7.1171875 C-18.17453718 0.65362379 -9.45893618 0.01212973 0 0 Z " fill="#FFFFFF" transform="translate(231.39453125,4.83203125)"/>
<path d="M0 0 C1.82917969 -0.01160156 1.82917969 -0.01160156 3.6953125 -0.0234375 C14.66470396 0.00025449 23.51224773 0.79928513 32 8.25 C39.48734064 16.61726316 40.30951699 26.39042619 40.25396729 37.23083496 C40.25708727 38.18379125 40.26020725 39.13674754 40.26342177 40.1185813 C40.27134391 43.28419687 40.2651008 46.44961766 40.25878906 49.61523438 C40.26150149 51.89602266 40.26506384 54.17681007 40.26940918 56.45759583 C40.27850542 62.63311993 40.27500031 68.80857701 40.26865101 74.98410225 C40.26357671 81.45632224 40.26828644 87.92853661 40.27142334 94.40075684 C40.27529147 105.96381234 40.26908806 117.52683734 40.25890467 129.08988804 C40.24997006 139.55880109 40.25152238 150.02766978 40.26074219 160.49658203 C40.27146242 172.67477695 40.27542009 184.85294031 40.26951766 197.03113985 C40.26640453 203.47000474 40.26597059 209.90883912 40.27259064 216.34770203 C40.27838078 222.40193908 40.27433661 228.4560926 40.26280212 234.51032066 C40.26016447 236.72823129 40.26090529 238.94614899 40.26532745 241.16405678 C40.27081969 244.19918681 40.26390425 247.23405174 40.25396729 250.26916504 C40.25842873 251.13980638 40.26289017 252.01044772 40.26748681 252.90747213 C40.2043738 262.89538022 38.8218802 271.62640311 32 279.25 C22.50231491 287.58725364 12.14296331 287.57701668 0 287.5 C-1.21945313 287.50773437 -2.43890625 287.51546875 -3.6953125 287.5234375 C-14.61914655 287.49984391 -23.57031681 286.73075075 -32 279.25 C-36.49495879 273.81270185 -39.11942481 269.06417053 -39.13142776 261.95389938 C-39.13718948 260.6692056 -39.13718948 260.6692056 -39.1430676 259.35855842 C-39.14220112 258.42238441 -39.14133463 257.4862104 -39.14044189 256.52166748 C-39.14341302 255.52342398 -39.14638414 254.52518048 -39.1494453 253.49668717 C-39.15813705 250.14198875 -39.15964095 246.78732599 -39.16113281 243.43261719 C-39.16576064 241.03124414 -39.17078525 238.62987182 -39.17617798 236.22850037 C-39.18930723 229.69741747 -39.19578468 223.166342 -39.20018864 216.63524914 C-39.2029526 212.55596728 -39.20719025 208.47668779 -39.21169281 204.39740753 C-39.22388444 193.09956384 -39.23418389 181.80172204 -39.2375679 170.50387192 C-39.23778747 169.78096014 -39.23800703 169.05804837 -39.23823325 168.31323017 C-39.23856067 167.2262909 -39.23856067 167.2262909 -39.2388947 166.11739326 C-39.23933816 164.64906295 -39.23978473 163.18073265 -39.24023438 161.71240234 C-39.2404558 160.98406221 -39.24067723 160.25572208 -39.24090537 159.50531104 C-39.24485253 147.70629727 -39.2623045 135.90734528 -39.2855939 124.10835537 C-39.30932041 111.98993466 -39.32177035 99.87154494 -39.32293582 87.75310063 C-39.32385186 80.95089302 -39.32958628 74.14876591 -39.34775543 67.34658051 C-39.36478727 60.94770276 -39.36639931 54.54893699 -39.35761642 48.15004158 C-39.3568452 45.8022858 -39.36119999 43.45452186 -39.37107468 41.10678673 C-39.38377179 37.89976458 -39.37792912 34.69328549 -39.36749268 31.48626709 C-39.37554908 30.55901597 -39.38360548 29.63176485 -39.39190602 28.67641521 C-39.32646228 20.06729531 -37.25746554 13.50746554 -31 7.25 C-21.6513509 -0.13481909 -11.52229409 -0.07308009 0 0 Z " fill="#FFFFFF" transform="translate(39,219.75)"/>
</svg>
